# xmcd
#
# Track frame offsets:
#	150
#	13609
#	31144
#	47211
#	59288
#	71205
#	84158
#	99000
#	116345
#	133694
#	148561
#	160308
#	176092
#	189591
#
# Disc length: 2680 seconds
#
# Revision: 0
# Processed by: cddbd v1.5.2PL0 Copyright (c) Steve Scherf et al.
# Submitted via: audiograbber 1.83.01
#
DISCID=b60a760e
DTITLE=01 - Mr Music Country 2013-02
DYEAR=2013
DGENRE=Country
TTITLE0=Tim McGraw - She never lets it get to her heart
TTITLE1=Leann Rimes - Something's gotta give
TTITLE2=Lee Brice - Love like crazy
TTITLE3=The Judds - Rockin' with the rhythm of the rain
TTITLE4=Rodney Atkins - 15 minutes
TTITLE5=Hal Ketchum - Stay forever
TTITLE6=Jo Dee Messina - Bye bye
TTITLE7=Sawyer Brown - I don't believe in goodbye
TTITLE8=Davis Kersh - Another you
TTITLE9=Heidi Newfield - Cry cry ('Til the sun shines)
TTITLE10=Hank Williams Jr - Dixie on my mind
TTITLE11=Steve Holy - Good morning beautiful
TTITLE12=Jann Browne - Louisville
TTITLE13=The Desert Rose Band - Story of love
EXTD=
EXTT0=
EXTT1=
EXTT2=
EXTT3=
EXTT4=
EXTT5=
EXTT6=
EXTT7=
EXTT8=
EXTT9=
EXTT10=
EXTT11=
EXTT12=
EXTT13=
PLAYORDER=
